<svg width="32" height="58" viewBox="0 0 32 58" fill="none" xmlns="http://www.w3.org/2000/svg">
<path d="M20.1838 34.1838H11.6985M20.1838 34.1838C21.4079 31.457 22.3554 28.6144 23.0122 25.6985M20.1838 34.1838L27.2548 41.2548C27.2548 41.2548 30.7621 36.192 30.0833 32.7696C29.3196 28.9512 23.0122 25.6985 23.0122 25.6985M11.6985 34.1838C10.4986 31.4788 9.57472 28.6597 8.94077 25.7692C7.95389 21.4867 8.07905 17.0229 9.30435 12.8024C10.5297 8.58192 12.8144 4.74509 15.9411 1.65686C19.7878 5.50352 25.4446 13.3665 23.0122 25.6985M11.6985 34.1838L4.62742 41.2548C4.62742 41.2548 1.12017 36.192 1.79899 32.7696C2.56267 28.9512 8.87006 25.6985 8.87006 25.6985M11.6985 46.9117C11.3591 50.8149 15.9411 56.8112 15.9411 56.8112C15.9411 56.8112 20.5232 50.8149 20.1838 46.9117C19.9999 44.7197 18.1614 42.9095 15.9411 42.9236C14.8668 42.9486 13.8395 43.3696 13.0565 44.1056C12.2735 44.8417 11.7899 45.8409 11.6985 46.9117Z" stroke="black" stroke-width="2" stroke-linecap="round" stroke-linejoin="round"/>
</svg>
